<?xml version="1.0" encoding="utf-8"?>
<!-- Generator: Adobe Illustrator 27.1.1, SVG Export Plug-In . SVG Version: 6.00 Build 0)  -->
<svg version="1.1" id="Objects" xmlns="http://www.w3.org/2000/svg" xmlns:xlink="http://www.w3.org/1999/xlink" x="0px" y="0px"
	 viewBox="0 0 750 500" style="enable-background:new 0 0 750 500;" xml:space="preserve">
<style type="text/css">
	.st0{fill:#FFFFFF;}
	.st1{fill:#755505;}
	.st2{fill:#92990D;}
</style>
<g>
	<g>
		<g>
			<g>
				<path class="st0" d="M103.16,197.72l2.55-8.51l0.21,0.15l-2.49,8.31l-0.11-0.08l7.12-5l0.2,0.14l-2.44,8.35l-0.1-0.07l7.06-5.04
					l0.21,0.15l-7.23,5.15l-0.2-0.14l2.42-8.27l0.04,0.03l-7.05,4.96L103.16,197.72z"/>
				<path class="st0" d="M114.22,204.85l3.68-7.55l4.87,2.37l-0.1,0.21l-4.65-2.26l-3.48,7.14l4.81,2.34l-0.1,0.21L114.22,204.85z
					 M116.2,201.2l0.1-0.21l4.22,2.05l-0.1,0.21L116.2,201.2z"/>
				<path class="st0" d="M123.29,208.91l2.58-7.99l3.16,1.02c0.82,0.27,1.42,0.65,1.79,1.14c0.37,0.5,0.45,1.08,0.24,1.75
					c-0.14,0.44-0.37,0.77-0.68,1c-0.31,0.22-0.68,0.35-1.1,0.37c-0.43,0.02-0.89-0.05-1.38-0.21l0.24-0.09
					c0.62,0.2,1.1,0.44,1.46,0.73c0.36,0.29,0.59,0.62,0.7,0.99c0.11,0.37,0.09,0.78-0.06,1.23c-0.22,0.67-0.62,1.11-1.21,1.32
					c-0.59,0.21-1.38,0.15-2.35-0.16L123.29,208.91z M123.59,208.76l3.21,1.04c0.85,0.28,1.55,0.34,2.09,0.18
					c0.54-0.16,0.92-0.56,1.13-1.21c0.21-0.65,0.14-1.19-0.21-1.63c-0.35-0.44-0.95-0.8-1.8-1.07l-3.27-1.06l0.07-0.22l3.04,0.98
					c0.76,0.25,1.4,0.29,1.92,0.12c0.52-0.17,0.88-0.55,1.07-1.14s0.13-1.11-0.2-1.55c-0.32-0.44-0.87-0.79-1.63-1.03l-2.98-0.96
					L123.59,208.76z"/>
				<path class="st0" d="M135.74,212.26c-0.6-0.11-1.14-0.32-1.64-0.64c-0.49-0.32-0.85-0.67-1.06-1.06l0.19-0.12
					c0.2,0.35,0.53,0.68,0.99,0.98c0.45,0.3,0.97,0.5,1.54,0.61c0.6,0.11,1.1,0.11,1.52,0.02c0.41-0.1,0.73-0.27,0.97-0.51
					c0.23-0.25,0.38-0.54,0.44-0.88c0.07-0.39,0.03-0.73-0.11-1c-0.15-0.27-0.36-0.51-0.65-0.7s-0.61-0.37-0.97-0.53
					c-0.35-0.16-0.71-0.32-1.07-0.48c-0.36-0.16-0.68-0.35-0.97-0.56c-0.29-0.21-0.5-0.47-0.64-0.77s-0.17-0.67-0.09-1.1
					c0.06-0.36,0.22-0.68,0.47-0.96c0.25-0.28,0.59-0.48,1.04-0.61c0.44-0.12,0.98-0.13,1.63-0.01c0.44,0.08,0.86,0.23,1.27,0.44
					c0.4,0.21,0.73,0.46,0.99,0.75l-0.16,0.17c-0.29-0.3-0.62-0.55-1-0.74c-0.38-0.19-0.76-0.32-1.13-0.39
					c-0.58-0.1-1.07-0.1-1.48,0c-0.41,0.1-0.73,0.28-0.96,0.52c-0.23,0.25-0.38,0.54-0.44,0.89c-0.07,0.4-0.04,0.74,0.11,1.01
					s0.36,0.51,0.65,0.7s0.61,0.37,0.97,0.53c0.36,0.16,0.71,0.32,1.06,0.48c0.35,0.17,0.67,0.35,0.96,0.56
					c0.29,0.21,0.5,0.46,0.64,0.76s0.17,0.65,0.1,1.08c-0.07,0.36-0.23,0.68-0.48,0.96s-0.61,0.48-1.06,0.6
					C136.95,212.38,136.4,212.38,135.74,212.26z"/>
				<path class="st0" d="M142.54,213.13l0.71-8.37l0.24,0.02l-0.71,8.37L142.54,213.13z"/>
				<path class="st0" d="M149.21,213.41l-0.06-8.17l-3.12,0.02l0-0.23l6.48-0.05l0,0.23l-3.12,0.02l0.06,8.17L149.21,213.41z"/>
				<path class="st0" d="M155.99,213.12l-1.04-8.33l5.37-0.67l0.03,0.23l-5.13,0.64l0.98,7.88l5.31-0.66l0.03,0.23L155.99,213.12z
					 M155.66,208.98l-0.03-0.23l4.66-0.58l0.03,0.23L155.66,208.98z"/>
				<path class="st0" d="M165.04,211.73c-0.08,0.02-0.16,0-0.23-0.05c-0.08-0.05-0.12-0.11-0.14-0.19c-0.02-0.09,0-0.17,0.05-0.24
					c0.05-0.07,0.11-0.12,0.19-0.13c0.09-0.02,0.17-0.01,0.24,0.04s0.12,0.11,0.14,0.2c0.02,0.08,0,0.15-0.04,0.23
					C165.19,211.66,165.13,211.71,165.04,211.73z"/>
				<path class="st0" d="M172.56,209.67c-0.59,0.19-1.16,0.26-1.73,0.22s-1.09-0.19-1.57-0.44c-0.49-0.25-0.91-0.58-1.27-1
					s-0.63-0.92-0.82-1.5c-0.18-0.58-0.25-1.15-0.2-1.7c0.05-0.55,0.2-1.07,0.45-1.56c0.25-0.48,0.6-0.91,1.03-1.27
					c0.43-0.36,0.95-0.64,1.53-0.82c0.53-0.17,1.05-0.24,1.58-0.23c0.53,0.02,1.02,0.14,1.47,0.38l-0.09,0.2
					c-0.48-0.23-0.96-0.35-1.44-0.36c-0.48-0.01-0.96,0.07-1.45,0.22c-0.55,0.18-1.03,0.44-1.44,0.78s-0.74,0.75-0.98,1.21
					c-0.24,0.46-0.38,0.95-0.43,1.47c-0.05,0.52,0.02,1.06,0.19,1.6c0.17,0.54,0.43,1.01,0.77,1.41c0.34,0.4,0.74,0.72,1.2,0.95
					c0.46,0.23,0.96,0.37,1.49,0.42c0.53,0.04,1.08-0.02,1.62-0.2c0.49-0.16,0.92-0.38,1.31-0.66c0.39-0.29,0.71-0.66,0.96-1.13
					l0.19,0.12c-0.23,0.45-0.56,0.84-0.98,1.16C173.56,209.26,173.09,209.5,172.56,209.67z"/>
				<path class="st0" d="M182.15,205.72c-0.55,0.27-1.11,0.43-1.67,0.47s-1.1-0.02-1.62-0.19s-0.99-0.44-1.41-0.8
					c-0.42-0.36-0.77-0.82-1.04-1.36c-0.27-0.54-0.42-1.09-0.46-1.65s0.04-1.09,0.22-1.61c0.18-0.52,0.45-0.99,0.83-1.41
					c0.38-0.42,0.84-0.77,1.39-1.04c0.55-0.27,1.11-0.43,1.67-0.47c0.56-0.04,1.1,0.02,1.62,0.19c0.52,0.17,0.99,0.44,1.41,0.8
					c0.42,0.36,0.77,0.82,1.04,1.36c0.27,0.54,0.42,1.09,0.46,1.65s-0.04,1.09-0.22,1.61c-0.18,0.52-0.45,0.99-0.83,1.41
					C183.17,205.1,182.7,205.45,182.15,205.72z M182.05,205.52c0.52-0.26,0.95-0.58,1.31-0.98c0.36-0.4,0.62-0.84,0.79-1.33
					c0.17-0.49,0.24-1,0.2-1.52c-0.03-0.52-0.18-1.04-0.43-1.56c-0.26-0.52-0.58-0.95-0.98-1.29c-0.4-0.34-0.84-0.6-1.33-0.76
					c-0.49-0.16-1-0.22-1.54-0.18c-0.53,0.04-1.06,0.19-1.57,0.44c-0.52,0.26-0.95,0.58-1.31,0.98c-0.36,0.4-0.62,0.84-0.79,1.33
					c-0.17,0.49-0.24,1-0.2,1.52c0.03,0.52,0.18,1.04,0.43,1.56c0.26,0.52,0.58,0.95,0.98,1.29c0.4,0.34,0.84,0.6,1.33,0.76
					s1,0.22,1.54,0.18S181.53,205.78,182.05,205.52z"/>
				<path class="st0" d="M189.73,201.49l-4.96-6.78l0.17-0.12l7.35,3.28l-0.09,0.06l-0.91-7.99l0.16-0.12l4.96,6.78l-0.19,0.14
					l-4.75-6.5l0.08-0.06l0.89,7.86l-0.12,0.08l-7.23-3.22l0.09-0.06l4.75,6.5L189.73,201.49z"/>
			</g>
		</g>
	</g>
	<g>
		<g>
			<path class="st0" d="M92.31,111.75l-11.01-6.12l2.07-3.73c0.5-0.9,1.08-1.6,1.72-2.08s1.33-0.75,2.06-0.8
				c0.73-0.05,1.47,0.14,2.24,0.56c0.76,0.42,1.31,0.95,1.65,1.6c0.35,0.65,0.49,1.37,0.42,2.18c-0.07,0.81-0.36,1.66-0.86,2.56
				l-1.98,3.56l-0.06-0.22l3.92,2.18L92.31,111.75z M88.53,109.24l-0.2,0.07l1.99-3.59c0.72-1.29,0.97-2.44,0.77-3.44
				c-0.2-1.01-0.83-1.8-1.88-2.38c-1.06-0.59-2.07-0.7-3.02-0.34c-0.96,0.36-1.79,1.19-2.51,2.48l-1.99,3.59l-0.05-0.21
				L88.53,109.24z"/>
			<path class="st0" d="M97.66,102.3l-5.72-12.66l0.24-0.27l13.36,3.8l-0.27,0.31l-13.05-3.72l0.12-0.14l5.59,12.36L97.66,102.3z
				 M96.05,98.36L95.9,98l5.12-5.93l0.38,0.09L96.05,98.36z"/>
			<path class="st0" d="M107.85,91.36L100,81.51l0.28-0.22l7.64,9.59l5.87-4.68l0.21,0.27L107.85,91.36z"/>
			<path class="st0" d="M116.33,84.84l-5.46-11.35l0.28-0.13l9.94,6.84l-0.15,0.07l0.84-12.03l0.28-0.13l5.46,11.35l-0.32,0.16
				l-5.23-10.88l0.13-0.06l-0.84,11.83l-0.19,0.09l-9.78-6.72l0.15-0.07l5.23,10.88L116.33,84.84z"/>
			<path class="st0" d="M142.42,76.39c-0.92,0.1-1.79,0.03-2.6-0.21c-0.81-0.23-1.54-0.61-2.18-1.12c-0.64-0.51-1.16-1.13-1.56-1.86
				c-0.4-0.73-0.65-1.55-0.75-2.46c-0.1-0.91-0.02-1.76,0.22-2.56c0.24-0.8,0.62-1.51,1.14-2.15s1.15-1.15,1.9-1.55
				c0.75-0.4,1.58-0.65,2.5-0.74s1.79-0.03,2.6,0.21c0.81,0.23,1.54,0.61,2.18,1.12c0.64,0.51,1.16,1.13,1.56,1.86
				c0.4,0.73,0.65,1.55,0.75,2.46c0.1,0.91,0.02,1.76-0.22,2.56c-0.24,0.8-0.62,1.51-1.14,2.15c-0.52,0.63-1.15,1.15-1.9,1.55
				S143.34,76.3,142.42,76.39z M142.39,76.05c0.86-0.09,1.64-0.32,2.35-0.7s1.31-0.86,1.8-1.47c0.49-0.6,0.85-1.28,1.08-2.03
				c0.23-0.75,0.3-1.56,0.21-2.42s-0.33-1.63-0.71-2.32s-0.87-1.28-1.48-1.76s-1.29-0.84-2.07-1.06c-0.77-0.22-1.59-0.29-2.45-0.2
				c-0.86,0.09-1.64,0.32-2.35,0.7c-0.71,0.38-1.31,0.86-1.8,1.47c-0.49,0.6-0.85,1.28-1.08,2.03s-0.3,1.56-0.21,2.42
				s0.33,1.63,0.71,2.32c0.38,0.69,0.87,1.28,1.48,1.76c0.61,0.49,1.29,0.84,2.07,1.06C140.71,76.08,141.53,76.14,142.39,76.05z"/>
			<path class="st0" d="M152.74,76.1l0.77-12.58l0.36,0.02l-0.77,12.58L152.74,76.1z"/>
			<path class="st0" d="M158.37,76.62l2.42-12.37l0.35,0.07l-2.35,12.03l7.37,1.44l-0.07,0.34L158.37,76.62z"/>
			<path class="st0" d="M173.69,80.94l5.56-11.31l7.29,3.58l-0.15,0.31l-6.96-3.42l-5.41,11L173.69,80.94z M176.52,75.79l0.15-0.31
				l6.32,3.1l-0.15,0.31L176.52,75.79z"/>
			<path class="st0" d="M183.95,86.46l7.67-9.99l3.38,2.6c1.23,0.94,1.97,1.97,2.22,3.08c0.25,1.11-0.02,2.18-0.82,3.22
				c-0.53,0.69-1.13,1.15-1.83,1.4s-1.43,0.28-2.21,0.09c-0.79-0.19-1.59-0.6-2.41-1.22l-3.23-2.48l0.23-0.03l-2.73,3.55
				L183.95,86.46z M186.98,83.09l-0.04-0.21l3.26,2.5c1.17,0.9,2.27,1.32,3.29,1.27c1.02-0.05,1.9-0.56,2.63-1.51
				c0.74-0.96,1-1.94,0.78-2.94s-0.91-1.95-2.08-2.85l-3.25-2.5l0.22-0.02L186.98,83.09z M191.04,91.9l0.17-5.63l0.36,0.27
				l-0.17,5.63L191.04,91.9z"/>
			<path class="st0" d="M194.04,94.91l9.52-8.25l5.31,6.14l-0.26,0.22l-5.08-5.86l-9.01,7.8l5.26,6.07l-0.26,0.22L194.04,94.91z
				 M198.92,91.04l0.26-0.22l4.61,5.32l-0.26,0.22L198.92,91.04z"/>
			<path class="st0" d="M201.74,104.56l10.95-6.23l4.01,7.06l-0.3,0.17l-3.84-6.74l-10.36,5.89l3.97,6.98l-0.3,0.17L201.74,104.56z
				 M207.28,101.71l0.3-0.17l3.48,6.12l-0.3,0.17L207.28,101.71z"/>
		</g>
	</g>
</g>
<g>
	<path class="st1" d="M442.66,234.17H285.79c-1.26,0-2.28-1.02-2.28-2.28V123.84c0-44.58,36.14-80.72,80.72-80.72l0,0
		c44.58,0,80.72,36.14,80.72,80.72v108.04C444.94,233.15,443.92,234.17,442.66,234.17z"/>
	<path class="st0" d="M287.04,231.07c-0.24,0-0.44-0.2-0.44-0.44V123.84c0-42.8,34.82-77.62,77.62-77.62
		c42.8,0,77.62,34.82,77.62,77.62v106.79c0,0.24-0.2,0.44-0.44,0.44H287.04z"/>
	<path class="st2" d="M438.75,123.84v104.13H289.7V123.84c0-41.08,33.42-74.52,74.52-74.52C405.31,49.32,438.75,82.76,438.75,123.84
		z"/>
	<path class="st0" d="M286.6,231.07v-43.09h42.65c1.57-17.93,16.68-32.05,35.01-32.05c18.34,0,33.44,14.11,35.01,32.05h42.57v43.09
		H286.6z"/>
	<path class="st0" d="M364.23,64.02c-29.39,0-53.17,23.91-53.17,53.16c0,14.63,13.19,36.63,26.43,55.02
		c13.35,18.54,26.74,33.41,26.74,33.41s13.39-14.87,26.73-33.41c13.25-18.39,26.43-40.38,26.43-55.02
		C417.39,87.93,393.61,64.02,364.23,64.02z"/>
	<g>
		<polygon class="st2" points="368.35,181.77 360.17,181.77 362.02,104.54 366.51,104.54 		"/>
		<g>
			<g>
				<path class="st2" d="M350.84,98.4l1.84,1.96c-0.12-0.07-1.76-1.44-3.25-2c-2.1-0.01-4.36,0.18-6.69,0.72l2.33,1.5
					c-0.2-0.04-2.17-0.95-3.94-1.08c-0.81,0.24-1.64,0.53-2.45,0.86c-0.79,0.32-1.54,0.68-2.25,1.08l3.15,1.26
					c-0.23-0.04-2.57-0.57-4.46-0.47c-1.43,0.93-2.71,1.99-3.85,3.13l3.3,0.93c0,0-2.27-0.3-4.17-0.02
					c-1.43,1.55-2.61,3.2-3.57,4.76l2.04,0.52c0,0-0.92-0.04-2.55,0.31l0,0.01c-2.16,3.74-3.05,6.82-3.05,6.82s14.9-15.17,38-15.14
					l0.19-2.86C361.46,100.66,357,98.7,350.84,98.4z"/>
				<path class="st2" d="M351.88,103.69l2.97,0.91c-0.16-0.01-2.6-0.49-4.43-0.35c-2.15,0.88-4.35,2.01-6.42,3.46l3.21,0.3
					c-0.22,0.05-2.75,0.1-4.62,0.74c-0.69,0.55-1.38,1.15-2.03,1.78c-0.62,0.61-1.19,1.24-1.7,1.88l3.92-0.25
					c-0.26,0.06-2.94,0.6-4.81,1.49c-0.95,1.41-1.66,2.87-2.19,4.33l3.88-0.6c0,0-2.48,0.7-4.27,1.75c-0.59,1.94-0.88,3.86-1,5.62
					l2.37-0.42c0,0-0.96,0.35-2.42,1.35l0,0c-0.12,4.14,0.68,7.17,0.68,7.17s6.76-19.39,30.33-29.17l-1.4-2.54
					C363.97,101.14,358.33,101.34,351.88,103.69z"/>
				<path class="st2" d="M355.28,107.17l2.42-0.09c-0.12,0.03-2.04,0.3-3.34,0.88c-1.35,1.2-2.68,2.58-3.83,4.18l2.43-0.6
					c-0.15,0.09-1.99,0.77-3.2,1.73c-0.37,0.58-0.72,1.19-1.03,1.82c-0.3,0.61-0.55,1.21-0.77,1.82l2.81-1.19
					c-0.17,0.11-2,1.19-3.15,2.32c-0.34,1.27-0.48,2.53-0.5,3.73l2.69-1.43c0,0-1.64,1.15-2.69,2.37c0.06,1.58,0.34,3.06,0.7,4.38
					l1.63-0.92c0,0-0.61,0.5-1.43,1.61l0,0c0.97,3.07,2.33,5.09,2.33,5.09s0-15.96,14.81-29.15l-1.67-1.51
					C363.5,102.21,359.42,103.79,355.28,107.17z"/>
				<path class="st2" d="M355.67,93.22l0.72,3.02c-0.08-0.13-0.94-2.45-2.1-3.85c-2.09-1.21-4.46-2.31-7.09-3.09l1.47,2.82
					c-0.17-0.16-1.63-2.19-3.33-3.33c-0.95-0.22-1.93-0.41-2.94-0.54c-0.97-0.13-1.93-0.19-2.86-0.21l2.43,3.06
					c-0.2-0.17-2.25-2.04-4.19-3.02c-1.96,0.11-3.85,0.45-5.63,0.93l2.77,2.81c0,0-2.1-1.6-4.16-2.4c-2.31,0.74-4.43,1.71-6.28,2.72
					l1.75,1.68c0,0-0.89-0.56-2.72-1.14l0,0.01c-4.29,2.5-6.93,5.07-6.93,5.07s23.54-6.66,46.61,6.54l1.82-2.75
					C364.99,101.54,361.65,97.03,355.67,93.22z"/>
				<path class="st2" d="M363,93.69l-0.69,2.42c0-0.13,0.31-2.11,0.05-3.57c-1-1.69-2.24-3.42-3.78-5.03l-0.09,2.59
					c-0.06-0.18-0.27-2.2-1.02-3.69c-0.58-0.54-1.21-1.06-1.87-1.56c-0.64-0.48-1.29-0.91-1.94-1.29l0.5,3.14
					c-0.07-0.2-0.77-2.34-1.76-3.81c-1.43-0.71-2.9-1.22-4.36-1.6l0.84,3.09c0,0-0.84-1.97-1.98-3.36c-1.93-0.4-3.82-0.57-5.54-0.59
					l0.56,1.89c0,0-0.4-0.76-1.47-1.9l0,0c-4.04,0.05-6.94,0.82-6.94,0.82s19.33,4.71,30.38,23.28l2.39-1.22
					C366.27,103.31,365.71,98.79,363,93.69z"/>
			</g>
			<g>
				<path class="st2" d="M367.07,100.66l0.19,2.86c23.1-0.03,38,15.14,38,15.14s-0.89-3.08-3.05-6.82v-0.01
					c-1.63-0.36-2.55-0.31-2.55-0.31l2.04-0.52c-0.96-1.56-2.15-3.2-3.57-4.76c-1.9-0.28-4.17,0.02-4.17,0.02l3.3-0.93
					c-1.14-1.13-2.42-2.2-3.85-3.13c-1.89-0.1-4.24,0.43-4.46,0.47l3.15-1.26c-0.71-0.39-1.46-0.75-2.25-1.08
					c-0.82-0.33-1.64-0.62-2.45-0.86c-1.77,0.12-3.75,1.03-3.95,1.08l2.33-1.5c-2.32-0.54-4.58-0.73-6.69-0.72
					c-1.48,0.56-3.13,1.94-3.25,2l1.84-1.96C371.52,98.7,367.07,100.66,367.07,100.66z"/>
				<path class="st2" d="M364.56,101.14l-1.4,2.54c23.58,9.78,30.33,29.17,30.33,29.17s0.81-3.03,0.68-7.17l0,0
					c-1.46-1-2.42-1.35-2.42-1.35l2.37,0.42c-0.11-1.75-0.41-3.67-1-5.62c-1.79-1.05-4.27-1.75-4.27-1.75l3.88,0.6
					c-0.53-1.46-1.24-2.92-2.19-4.33c-1.87-0.89-4.56-1.43-4.81-1.49l3.92,0.25c-0.51-0.64-1.07-1.27-1.7-1.88
					c-0.65-0.63-1.33-1.23-2.03-1.78c-1.88-0.65-4.4-0.7-4.62-0.74l3.21-0.3c-2.07-1.45-4.27-2.58-6.42-3.46
					c-1.83-0.14-4.27,0.34-4.43,0.35l2.98-0.91C370.19,101.34,364.56,101.14,364.56,101.14z"/>
				<path class="st2" d="M365.02,102.21l-1.67,1.51c14.8,13.2,14.81,29.15,14.81,29.15s1.37-2.02,2.33-5.09l0,0
					c-0.82-1.11-1.43-1.61-1.43-1.61l1.63,0.92c0.37-1.32,0.64-2.8,0.7-4.38c-1.04-1.22-2.69-2.37-2.69-2.37l2.69,1.43
					c-0.02-1.21-0.16-2.46-0.5-3.73c-1.15-1.13-2.98-2.21-3.15-2.32l2.81,1.19c-0.21-0.6-0.46-1.21-0.76-1.82
					c-0.32-0.63-0.66-1.24-1.03-1.82c-1.21-0.95-3.05-1.64-3.2-1.73l2.43,0.6c-1.15-1.59-2.47-2.98-3.83-4.18
					c-1.3-0.57-3.22-0.84-3.34-0.88l2.42,0.09C369.11,103.79,365.02,102.21,365.02,102.21z"/>
				<path class="st2" d="M363.54,101.54l1.82,2.75c23.07-13.2,46.61-6.54,46.61-6.54s-2.64-2.57-6.93-5.07l0-0.01
					c-1.83,0.57-2.72,1.14-2.72,1.14l1.75-1.68c-1.85-1.01-3.97-1.98-6.28-2.72c-2.06,0.81-4.16,2.4-4.16,2.4l2.77-2.81
					c-1.78-0.48-3.67-0.82-5.63-0.93c-1.95,0.98-3.99,2.84-4.19,3.02l2.43-3.06c-0.94,0.01-1.89,0.08-2.86,0.21
					c-1.01,0.14-1.99,0.32-2.94,0.54c-1.7,1.14-3.16,3.17-3.33,3.33l1.47-2.82c-2.63,0.79-5,1.88-7.09,3.09
					c-1.16,1.41-2.03,3.72-2.1,3.85l0.72-3.02C366.87,97.03,363.54,101.54,363.54,101.54z"/>
				<path class="st2" d="M362.26,103.31l2.39,1.22c11.05-18.58,30.38-23.28,30.38-23.28s-2.9-0.76-6.94-0.82l0,0
					c-1.07,1.14-1.47,1.9-1.47,1.9l0.56-1.89c-1.71,0.02-3.6,0.19-5.54,0.59c-1.14,1.4-1.98,3.36-1.98,3.36l0.84-3.09
					c-1.46,0.37-2.93,0.89-4.36,1.6c-0.98,1.47-1.69,3.61-1.76,3.81l0.5-3.14c-0.66,0.39-1.31,0.81-1.94,1.29
					c-0.66,0.5-1.28,1.02-1.87,1.56c-0.75,1.48-0.97,3.51-1.02,3.69l-0.09-2.59c-1.55,1.61-2.79,3.33-3.78,5.03
					c-0.26,1.46,0.05,3.45,0.05,3.57l-0.7-2.42C362.81,98.79,362.26,103.31,362.26,103.31z"/>
			</g>
		</g>
		<path class="st2" d="M372.86,107.5c0,2.57-2.09,4.66-4.66,4.66c-2.57,0-4.66-2.09-4.66-4.66c0-2.57,2.09-4.66,4.66-4.66
			C370.77,102.84,372.86,104.93,372.86,107.5z"/>
		<path class="st2" d="M370.29,109.57c0,2.24-1.82,4.06-4.06,4.06s-4.06-1.82-4.06-4.06c0-2.24,1.82-4.06,4.06-4.06
			S370.29,107.33,370.29,109.57z"/>
		<path class="st2" d="M366.89,109.57c0,2.24-1.82,4.06-4.06,4.06c-2.24,0-4.06-1.82-4.06-4.06c0-2.24,1.82-4.06,4.06-4.06
			C365.07,105.51,366.89,107.33,366.89,109.57z"/>
		<path class="st2" d="M369.49,104.91c0,2.57-2.09,4.66-4.66,4.66c-2.57,0-4.66-2.09-4.66-4.66c0-2.57,2.09-4.66,4.66-4.66
			C367.4,100.25,369.49,102.34,369.49,104.91z"/>
	</g>
	<g>
		<polygon class="st2" points="355.67,175.13 350.56,176.5 338.86,127.97 341.66,127.22 		"/>
		<g>
			<g>
				<path class="st2" d="M330.86,125.99l1.48,0.92c-0.08-0.02-1.34-0.61-2.36-0.71c-1.31,0.34-2.69,0.84-4.05,1.56l1.7,0.55
					c-0.13,0.01-1.51-0.23-2.64-0.02c-0.47,0.29-0.93,0.6-1.39,0.94c-0.44,0.33-0.85,0.68-1.23,1.05l2.18,0.26
					c-0.15,0.01-1.7,0.07-2.86,0.45c-0.74,0.82-1.36,1.7-1.88,2.59l2.21,0.03c0,0-1.47,0.19-2.61,0.68
					c-0.63,1.21-1.1,2.43-1.44,3.56l1.36-0.02c0,0-0.58,0.13-1.54,0.62l0,0c-0.73,2.69-0.77,4.76-0.77,4.76s6.78-11.95,21.21-15.78
					l-0.36-1.81C337.87,125.64,334.76,125.16,330.86,125.99z"/>
				<path class="st2" d="M332.39,129.13l2.01,0.07c-0.1,0.02-1.71,0.13-2.82,0.52c-1.2,0.91-2.38,1.98-3.43,3.23l2.05-0.35
					c-0.13,0.07-1.7,0.52-2.76,1.23c-0.34,0.46-0.67,0.94-0.97,1.45c-0.29,0.49-0.54,0.97-0.75,1.46l2.4-0.81
					c-0.15,0.08-1.74,0.86-2.76,1.73c-0.36,1.04-0.56,2.07-0.65,3.07l2.32-1.02c0,0-1.43,0.85-2.37,1.8
					c-0.04,1.31,0.09,2.56,0.31,3.67l1.41-0.66c0,0-0.54,0.38-1.29,1.25l0,0c0.61,2.61,1.62,4.36,1.62,4.36s0.99-13.23,14.08-23.26
					l-1.29-1.35C339.51,125.52,336.03,126.58,332.39,129.13z"/>
				<path class="st2" d="M335.09,130.73l1.49-0.46c-0.07,0.04-1.22,0.53-1.94,1.1c-0.65,0.97-1.24,2.06-1.69,3.24l1.42-0.78
					c-0.08,0.08-1.11,0.81-1.71,1.61c-0.13,0.43-0.25,0.86-0.34,1.31c-0.09,0.43-0.14,0.85-0.18,1.26l1.56-1.21
					c-0.09,0.1-1.05,1.08-1.58,1.97c0,0.85,0.12,1.66,0.31,2.41l1.44-1.34c0,0-0.83,0.99-1.28,1.93c0.3,0.97,0.72,1.85,1.17,2.61
					l0.87-0.84c0,0-0.3,0.42-0.63,1.24l0,0c1.11,1.76,2.3,2.79,2.3,2.79s-2.65-9.96,4.39-20.67l-1.3-0.66
					C339.4,126.27,337.11,127.93,335.09,130.73z"/>
				<path class="st2" d="M333.01,121.96l0.95,1.76c-0.07-0.07-1-1.37-1.96-2.06c-1.51-0.41-3.17-0.7-4.94-0.75l1.39,1.52
					c-0.13-0.07-1.38-1.1-2.63-1.52c-0.63,0.02-1.28,0.07-1.93,0.15c-0.63,0.08-1.23,0.2-1.82,0.35l2.03,1.5
					c-0.15-0.08-1.74-0.9-3.12-1.19c-1.21,0.39-2.33,0.92-3.36,1.52l2.19,1.29c0,0-1.57-0.65-2.99-0.81
					c-1.32,0.85-2.48,1.8-3.47,2.74l1.37,0.76c0,0-0.65-0.2-1.89-0.26l0,0c-2.26,2.28-3.49,4.32-3.49,4.32s13.59-8.08,30.19-3.67
					l0.68-2.02C340.21,125.6,337.39,123.34,333.01,121.96z"/>
				<path class="st2" d="M337.67,121.03l-0.03,1.63c-0.02-0.08-0.16-1.37-0.56-2.24c-0.9-0.89-1.96-1.76-3.2-2.51l0.38,1.63
					c-0.07-0.1-0.54-1.33-1.25-2.13c-0.45-0.24-0.93-0.46-1.42-0.66c-0.48-0.19-0.95-0.35-1.43-0.48l0.83,1.88
					c-0.08-0.12-0.87-1.33-1.73-2.09c-1.01-0.2-2.02-0.28-2.99-0.27l1.04,1.79c0,0-0.85-1.09-1.8-1.77
					c-1.27,0.07-2.48,0.28-3.55,0.55l0.67,1.09c0,0-0.38-0.4-1.23-0.94l0,0c-2.52,0.71-4.2,1.66-4.2,1.66s12.85-0.28,22.84,9.48
					l1.29-1.16C341.31,126.49,340.21,123.76,337.67,121.03z"/>
			</g>
			<g>
				<path class="st2" d="M341.37,124.71l0.59,1.75c14.42-3.86,26.25,3.13,26.25,3.13s-1.07-1.77-3.04-3.75l0,0
					c-1.08,0.05-1.64,0.23-1.64,0.23l1.19-0.66c-0.86-0.81-1.87-1.64-3.02-2.38c-1.23,0.14-2.6,0.71-2.6,0.71l1.9-1.13
					c-0.9-0.52-1.88-0.97-2.92-1.31c-1.2,0.25-2.57,0.97-2.71,1.04l1.76-1.31c-0.51-0.13-1.04-0.23-1.59-0.3
					c-0.57-0.07-1.13-0.11-1.68-0.13c-1.09,0.37-2.17,1.27-2.28,1.33l1.21-1.32c-1.54,0.05-2.98,0.31-4.29,0.66
					c-0.83,0.6-1.63,1.73-1.69,1.79l0.82-1.53C343.82,122.74,341.37,124.71,341.37,124.71z"/>
				<path class="st2" d="M339.88,125.42l-0.45,1.82c16.35,2.18,23.79,13.16,23.79,13.16s0-2.02-0.77-4.59l0,0
					c-1.08-0.38-1.74-0.44-1.74-0.44l1.55-0.13c-0.36-1.08-0.86-2.22-1.56-3.34c-1.29-0.36-2.96-0.38-2.96-0.38l2.52-0.27
					c-0.57-0.82-1.26-1.62-2.09-2.34c-1.32-0.24-3.08-0.13-3.25-0.13l2.49-0.5c-0.43-0.32-0.88-0.61-1.37-0.89
					c-0.51-0.29-1.04-0.54-1.56-0.77c-1.28-0.09-2.86,0.3-3.01,0.3l1.95-0.72c-1.53-0.56-3.09-0.9-4.58-1.09
					c-1.17,0.21-2.61,0.92-2.71,0.96l1.71-1.06C343.43,124.61,339.88,125.42,339.88,125.42z"/>
				<path class="st2" d="M340.35,126.01l-0.79,1.22c11.44,5.78,14.1,15.74,14.1,15.74s0.52-1.49,0.61-3.56l0,0
					c-0.7-0.55-1.16-0.77-1.16-0.77l1.17,0.3c0.01-0.88-0.07-1.85-0.29-2.85c-0.86-0.59-2.07-1.04-2.07-1.04l1.92,0.45
					c-0.21-0.75-0.51-1.51-0.93-2.25c-0.91-0.51-2.23-0.89-2.36-0.92l1.95,0.27c-0.23-0.34-0.49-0.68-0.78-1.01
					c-0.3-0.34-0.62-0.66-0.95-0.97c-0.92-0.39-2.18-0.51-2.29-0.55l1.62-0.03c-0.98-0.8-2.04-1.45-3.08-1.97
					c-0.91-0.14-2.15,0.01-2.23,0.01l1.52-0.34C343.16,126.32,340.35,126.01,340.35,126.01z"/>
				<path class="st2" d="M339.31,125.84l1.59,1.41c12.21-12.08,28.01-11.84,28.01-11.84s-2.08-1.16-5.17-2.01l0,0
					c-1.05,0.66-1.51,1.16-1.51,1.16l0.81-1.34c-1.32-0.32-2.81-0.57-4.37-0.65c-1.15,0.85-2.19,2.19-2.19,2.19l1.26-2.21
					c-1.19,0-2.43,0.1-3.67,0.36c-1.05,0.94-2.02,2.44-2.11,2.58l1.01-2.31c-0.58,0.17-1.17,0.37-1.75,0.61
					c-0.61,0.25-1.19,0.53-1.75,0.83c-0.87,0.99-1.44,2.5-1.52,2.63l0.45-2.01c-1.51,0.93-2.81,2.01-3.91,3.11
					c-0.49,1.07-0.65,2.66-0.67,2.76l-0.05-2C340.64,122.48,339.31,125.84,339.31,125.84z"/>
				<path class="st2" d="M338.81,127.16l1.69,0.36c3.81-13.44,15.09-19.59,15.09-19.59s-1.94,0.01-4.47,0.65l0,0
					c-0.48,0.89-0.6,1.43-0.6,1.43l0.04-1.27c-1.07,0.3-2.22,0.72-3.36,1.29c-0.48,1.06-0.68,2.43-0.68,2.43l0.01-2.07
					c-0.85,0.47-1.68,1.04-2.46,1.72c-0.37,1.08-0.45,2.53-0.46,2.67l-0.21-2.04c-0.35,0.35-0.68,0.73-1,1.13
					c-0.33,0.42-0.63,0.85-0.9,1.29c-0.22,1.05-0.02,2.35-0.03,2.47l-0.48-1.6c-0.7,1.26-1.19,2.54-1.53,3.77
					c0.08,0.96,0.61,2.14,0.63,2.22l-0.84-1.4C338.4,124.25,338.81,127.16,338.81,127.16z"/>
			</g>
		</g>
		<path class="st2" d="M346.12,128.01c0.43,1.61-0.53,3.26-2.13,3.68c-1.61,0.43-3.26-0.53-3.68-2.13
			c-0.43-1.61,0.53-3.26,2.13-3.68C344.04,125.45,345.69,126.41,346.12,128.01z"/>
		<path class="st2" d="M344.86,129.73c0.37,1.4-0.46,2.84-1.86,3.21c-1.4,0.37-2.84-0.46-3.21-1.86c-0.37-1.4,0.46-2.84,1.86-3.21
			C343.05,127.5,344.49,128.33,344.86,129.73z"/>
		<path class="st2" d="M342.74,130.3c0.37,1.4-0.46,2.84-1.86,3.21c-1.4,0.37-2.84-0.46-3.21-1.86c-0.37-1.4,0.46-2.84,1.86-3.21
			C340.93,128.06,342.37,128.9,342.74,130.3z"/>
		<path class="st2" d="M343.59,126.96c0.43,1.61-0.53,3.26-2.13,3.68c-1.61,0.43-3.26-0.53-3.68-2.13
			c-0.43-1.61,0.53-3.26,2.13-3.68C341.51,124.39,343.16,125.35,343.59,126.96z"/>
	</g>
	<g>
		<polygon class="st2" points="373.84,175.13 378.95,176.5 390.65,127.97 387.84,127.22 		"/>
		<g>
			<g>
				<path class="st2" d="M391.64,125.64l-0.36,1.81c14.43,3.83,21.21,15.78,21.21,15.78s-0.04-2.07-0.77-4.76l0,0
					c-0.96-0.49-1.54-0.62-1.54-0.62l1.36,0.02c-0.34-1.13-0.81-2.36-1.44-3.56c-1.14-0.49-2.61-0.68-2.61-0.68l2.21-0.03
					c-0.52-0.9-1.14-1.78-1.88-2.59c-1.16-0.38-2.72-0.44-2.86-0.45l2.18-0.26c-0.38-0.36-0.79-0.71-1.23-1.05
					c-0.46-0.34-0.92-0.66-1.39-0.94c-1.13-0.22-2.51,0.02-2.64,0.02l1.7-0.55c-1.36-0.72-2.74-1.22-4.05-1.56
					c-1.02,0.1-2.28,0.69-2.36,0.71l1.48-0.92C394.75,125.16,391.64,125.64,391.64,125.64z"/>
				<path class="st2" d="M390,125.52l-1.29,1.35c13.09,10.03,14.08,23.26,14.08,23.26s1.01-1.76,1.62-4.36l0,0
					c-0.75-0.87-1.29-1.25-1.29-1.25l1.41,0.66c0.22-1.11,0.36-2.36,0.31-3.67c-0.94-0.95-2.37-1.8-2.37-1.8l2.32,1.02
					c-0.09-1-0.29-2.03-0.64-3.07c-1.02-0.87-2.61-1.65-2.76-1.73l2.4,0.81c-0.21-0.49-0.46-0.97-0.75-1.46
					c-0.3-0.5-0.63-0.99-0.97-1.45c-1.07-0.72-2.63-1.17-2.76-1.23l2.05,0.35c-1.05-1.25-2.24-2.32-3.43-3.23
					c-1.12-0.39-2.72-0.5-2.82-0.52l2.01-0.07C393.48,126.58,390,125.52,390,125.52z"/>
				<path class="st2" d="M390.11,126.27l-1.3,0.66c7.05,10.7,4.39,20.67,4.39,20.67s1.19-1.03,2.3-2.79l0,0
					c-0.33-0.83-0.63-1.24-0.63-1.24l0.87,0.84c0.45-0.76,0.87-1.64,1.17-2.61c-0.45-0.94-1.28-1.93-1.28-1.93l1.44,1.34
					c0.19-0.76,0.31-1.56,0.31-2.41c-0.53-0.9-1.49-1.88-1.58-1.97l1.56,1.21c-0.03-0.41-0.09-0.83-0.18-1.26
					c-0.09-0.45-0.21-0.88-0.34-1.31c-0.6-0.8-1.63-1.53-1.71-1.61l1.42,0.78c-0.45-1.19-1.05-2.27-1.69-3.24
					c-0.72-0.57-1.87-1.06-1.94-1.1l1.49,0.46C392.4,127.93,390.11,126.27,390.11,126.27z"/>
				<path class="st2" d="M389.29,125.6l0.68,2.02c16.6-4.4,30.19,3.67,30.19,3.67s-1.22-2.04-3.49-4.32l0,0
					c-1.24,0.05-1.89,0.26-1.89,0.26l1.37-0.76c-0.99-0.94-2.15-1.9-3.47-2.74c-1.42,0.16-3,0.81-3,0.81l2.19-1.29
					c-1.03-0.6-2.16-1.12-3.36-1.52c-1.38,0.29-2.96,1.11-3.12,1.19l2.03-1.5c-0.59-0.15-1.19-0.26-1.82-0.35
					c-0.65-0.08-1.3-0.13-1.93-0.15c-1.25,0.43-2.5,1.45-2.63,1.52l1.39-1.52c-1.77,0.05-3.43,0.34-4.94,0.75
					c-0.96,0.69-1.88,1.99-1.96,2.06l0.95-1.76C392.12,123.34,389.29,125.6,389.29,125.6z"/>
				<path class="st2" d="M388.2,126.49l1.29,1.16c9.99-9.76,22.84-9.48,22.84-9.48s-1.68-0.96-4.2-1.66l0,0
					c-0.86,0.53-1.24,0.94-1.24,0.94l0.67-1.09c-1.07-0.27-2.28-0.48-3.55-0.55c-0.94,0.68-1.8,1.77-1.8,1.77l1.04-1.79
					c-0.97-0.01-1.98,0.07-2.99,0.27c-0.86,0.76-1.65,1.97-1.73,2.09l0.83-1.88c-0.47,0.13-0.95,0.29-1.43,0.48
					c-0.5,0.2-0.97,0.43-1.42,0.66c-0.72,0.8-1.19,2.03-1.25,2.13l0.38-1.63c-1.23,0.75-2.29,1.62-3.2,2.51
					c-0.41,0.87-0.54,2.16-0.56,2.24l-0.03-1.63C389.3,123.76,388.2,126.49,388.2,126.49z"/>
			</g>
			<g>
				<path class="st2" d="M381.89,121.53l0.83,1.53c-0.06-0.06-0.86-1.19-1.7-1.79c-1.31-0.36-2.75-0.61-4.29-0.66l1.21,1.32
					c-0.12-0.06-1.2-0.96-2.28-1.33c-0.55,0.02-1.11,0.06-1.68,0.13c-0.55,0.07-1.07,0.17-1.58,0.3l1.76,1.31
					c-0.13-0.07-1.51-0.78-2.71-1.04c-1.05,0.34-2.02,0.79-2.92,1.31l1.9,1.13c0,0-1.37-0.57-2.6-0.71
					c-1.15,0.73-2.16,1.56-3.02,2.38l1.19,0.66c0,0-0.56-0.18-1.64-0.23l0,0c-1.97,1.97-3.04,3.75-3.04,3.75s11.83-6.99,26.25-3.13
					l0.59-1.75C388.14,124.71,385.69,122.74,381.89,121.53z"/>
				<path class="st2" d="M381.66,125l1.71,1.06c-0.1-0.03-1.54-0.74-2.71-0.96c-1.49,0.19-3.05,0.53-4.58,1.09l1.95,0.72
					c-0.15-0.01-1.73-0.39-3.01-0.3c-0.53,0.23-1.05,0.49-1.56,0.77c-0.49,0.28-0.95,0.58-1.37,0.89l2.49,0.5
					c-0.17-0.01-1.94-0.11-3.25,0.13c-0.82,0.72-1.51,1.52-2.09,2.34l2.52,0.27c0,0-1.67,0.02-2.96,0.38
					c-0.69,1.12-1.19,2.26-1.56,3.34l1.55,0.13c0,0-0.66,0.06-1.74,0.44l0,0c-0.77,2.56-0.77,4.59-0.77,4.59s7.45-10.98,23.79-13.16
					l-0.45-1.82C389.63,125.42,386.08,124.61,381.66,125z"/>
				<path class="st2" d="M383.2,127.74l1.52,0.34c-0.08,0-1.32-0.15-2.23-0.01c-1.04,0.52-2.1,1.17-3.08,1.97l1.62,0.03
					c-0.11,0.03-1.37,0.15-2.29,0.55c-0.33,0.3-0.65,0.63-0.95,0.97c-0.29,0.33-0.55,0.67-0.78,1.01l1.95-0.27
					c-0.13,0.04-1.45,0.41-2.36,0.92c-0.42,0.74-0.72,1.5-0.93,2.25l1.92-0.45c0,0-1.22,0.44-2.07,1.04c-0.22,1-0.3,1.97-0.29,2.85
					l1.17-0.3c0,0-0.47,0.21-1.16,0.77l0,0c0.09,2.08,0.61,3.56,0.61,3.56s2.66-9.96,14.1-15.74l-0.79-1.22
					C389.16,126.01,386.35,126.32,383.2,127.74z"/>
				<path class="st2" d="M385.76,119.1l-0.05,2c-0.03-0.1-0.18-1.68-0.67-2.76c-1.1-1.1-2.4-2.18-3.91-3.11l0.45,2.01
					c-0.08-0.13-0.65-1.64-1.52-2.63c-0.56-0.3-1.14-0.58-1.75-0.83c-0.59-0.24-1.17-0.44-1.75-0.61l1.01,2.31
					c-0.1-0.14-1.06-1.64-2.11-2.58c-1.24-0.26-2.48-0.36-3.67-0.36l1.26,2.21c0,0-1.04-1.34-2.19-2.19
					c-1.57,0.08-3.05,0.33-4.38,0.65l0.81,1.34c0,0-0.46-0.5-1.51-1.16l0,0c-3.1,0.85-5.17,2.01-5.17,2.01s15.8-0.24,28.01,11.84
					l1.59-1.41C390.2,125.84,388.87,122.48,385.76,119.1z"/>
				<path class="st2" d="M390.26,120.61l-0.84,1.4c0.02-0.08,0.54-1.26,0.63-2.22c-0.34-1.22-0.83-2.51-1.53-3.77l-0.48,1.6
					c-0.01-0.12,0.2-1.42-0.03-2.47c-0.28-0.43-0.58-0.86-0.91-1.29c-0.32-0.41-0.65-0.78-1-1.13l-0.21,2.04
					c-0.01-0.14-0.09-1.59-0.46-2.67c-0.78-0.68-1.61-1.25-2.46-1.72l0.01,2.07c0,0-0.2-1.37-0.68-2.43
					c-1.14-0.57-2.29-0.99-3.36-1.29l0.04,1.27c0,0-0.13-0.54-0.6-1.43l0,0c-2.53-0.64-4.47-0.65-4.47-0.65s11.29,6.16,15.09,19.59
					l1.69-0.36C390.7,127.16,391.11,124.25,390.26,120.61z"/>
			</g>
		</g>
		<path class="st2" d="M383.39,128.01c-0.43,1.61,0.53,3.26,2.13,3.68c1.61,0.43,3.25-0.53,3.68-2.13c0.43-1.61-0.53-3.26-2.13-3.68
			C385.47,125.45,383.82,126.41,383.39,128.01z"/>
		<path class="st2" d="M384.65,129.73c-0.37,1.4,0.46,2.84,1.86,3.21c1.4,0.37,2.84-0.46,3.21-1.86c0.37-1.4-0.46-2.84-1.86-3.21
			C386.46,127.5,385.02,128.33,384.65,129.73z"/>
		<path class="st2" d="M386.77,130.3c-0.37,1.4,0.46,2.84,1.86,3.21c1.4,0.37,2.84-0.46,3.21-1.86c0.37-1.4-0.46-2.84-1.86-3.21
			C388.58,128.06,387.14,128.9,386.77,130.3z"/>
		<path class="st2" d="M385.92,126.96c-0.43,1.61,0.53,3.26,2.13,3.68c1.61,0.43,3.26-0.53,3.68-2.13c0.43-1.61-0.53-3.26-2.13-3.68
			C388,124.39,386.35,125.35,385.92,126.96z"/>
	</g>
	<path class="st1" d="M396.31,191.07c0-17.7-14.35-32.05-32.05-32.05c-17.7,0-32.05,14.35-32.05,32.05H289.7v36.89h149.04v-36.89
		H396.31z"/>
	<g>
		<g>
			<g>
				<path class="st0" d="M344.48,186.97l-7.16-2.4l0.81-2.42c0.2-0.59,0.46-1.06,0.79-1.41c0.33-0.36,0.7-0.59,1.13-0.7
					s0.88-0.08,1.38,0.09c0.49,0.16,0.87,0.42,1.15,0.76c0.28,0.34,0.44,0.75,0.48,1.24s-0.03,1.02-0.22,1.6l-0.77,2.31l-0.06-0.12
					l2.55,0.85L344.48,186.97z M341.99,185.91l-0.11,0.06l0.78-2.33c0.28-0.84,0.31-1.54,0.08-2.11s-0.69-0.97-1.37-1.2
					c-0.69-0.23-1.29-0.19-1.82,0.13c-0.52,0.32-0.93,0.9-1.21,1.73l-0.78,2.33l-0.05-0.12L341.99,185.91z"/>
				<path class="st0" d="M347.08,180.45l-5.89-4.72l1.6-1.99c0.58-0.72,1.2-1.15,1.87-1.29c0.67-0.14,1.31,0.04,1.92,0.53
					c0.4,0.32,0.68,0.69,0.82,1.11c0.14,0.42,0.15,0.86,0.03,1.33c-0.12,0.47-0.38,0.94-0.76,1.43l-1.52,1.9l-0.02-0.14l2.1,1.68
					L347.08,180.45z M345.1,178.59l-0.13,0.02l1.54-1.92c0.55-0.69,0.82-1.34,0.8-1.96c-0.02-0.61-0.31-1.15-0.87-1.59
					c-0.57-0.45-1.15-0.62-1.75-0.5c-0.6,0.12-1.18,0.52-1.73,1.21l-1.54,1.92l-0.01-0.13L345.1,178.59z M350.43,176.26l-3.37-0.17
					l0.17-0.21l3.37,0.17L350.43,176.26z"/>
				<path class="st0" d="M354.43,173.63c-0.48,0.27-0.97,0.44-1.48,0.51s-0.99,0.03-1.47-0.09s-0.91-0.35-1.3-0.65
					c-0.4-0.31-0.73-0.7-1-1.17s-0.43-0.96-0.49-1.46c-0.06-0.5-0.02-0.98,0.11-1.45c0.13-0.47,0.36-0.91,0.67-1.3
					c0.32-0.4,0.72-0.73,1.2-1c0.48-0.27,0.97-0.44,1.48-0.51c0.5-0.07,0.99-0.03,1.47,0.09s0.91,0.35,1.3,0.65
					c0.4,0.31,0.73,0.7,1,1.17c0.27,0.48,0.43,0.96,0.49,1.46s0.02,0.98-0.11,1.45s-0.36,0.91-0.67,1.3
					C355.31,173.02,354.91,173.36,354.43,173.63z M354.33,173.45c0.45-0.25,0.83-0.57,1.12-0.95c0.3-0.38,0.51-0.79,0.64-1.23
					s0.16-0.91,0.11-1.37s-0.21-0.93-0.46-1.38c-0.25-0.45-0.57-0.82-0.94-1.11c-0.37-0.29-0.78-0.49-1.23-0.62
					c-0.45-0.12-0.91-0.15-1.39-0.09c-0.48,0.06-0.94,0.22-1.39,0.48c-0.45,0.25-0.83,0.57-1.12,0.95c-0.3,0.38-0.51,0.79-0.64,1.23
					c-0.13,0.45-0.16,0.91-0.11,1.37c0.05,0.47,0.21,0.93,0.46,1.38c0.25,0.45,0.57,0.82,0.94,1.11s0.78,0.49,1.23,0.62
					s0.91,0.15,1.39,0.09C353.41,173.87,353.88,173.71,354.33,173.45z"/>
				<path class="st0" d="M359.21,171.43l-0.76-7.51l2.84-0.29c0.79-0.08,1.5,0.01,2.13,0.28c0.63,0.27,1.13,0.66,1.52,1.19
					c0.39,0.53,0.62,1.16,0.69,1.88s-0.03,1.38-0.3,1.98c-0.27,0.6-0.69,1.09-1.25,1.48s-1.24,0.62-2.03,0.7L359.21,171.43z
					 M359.4,171.2l2.61-0.26c0.76-0.08,1.41-0.3,1.95-0.66c0.53-0.36,0.93-0.83,1.18-1.39c0.25-0.56,0.35-1.19,0.28-1.88
					c-0.07-0.69-0.29-1.28-0.65-1.78c-0.36-0.5-0.84-0.88-1.44-1.13c-0.6-0.25-1.28-0.34-2.04-0.26l-2.61,0.26L359.4,171.2z"/>
				<path class="st0" d="M370.13,171.93c-0.86-0.26-1.46-0.72-1.8-1.39s-0.36-1.5-0.05-2.52l1.28-4.2l0.21,0.06l-1.28,4.19
					c-0.29,0.96-0.29,1.75,0.02,2.36c0.3,0.61,0.87,1.04,1.68,1.29c0.82,0.25,1.52,0.21,2.12-0.13c0.6-0.34,1.04-0.99,1.34-1.95
					l1.28-4.19l0.21,0.06l-1.28,4.2c-0.31,1.02-0.79,1.7-1.45,2.06C371.74,172.14,370.99,172.19,370.13,171.93z"/>
				<path class="st0" d="M377.2,175.77c-0.44-0.34-0.78-0.73-1.03-1.17c-0.25-0.44-0.41-0.9-0.47-1.39
					c-0.06-0.49-0.03-0.97,0.11-1.45s0.37-0.94,0.7-1.37c0.34-0.43,0.72-0.77,1.16-1.01c0.44-0.24,0.9-0.39,1.39-0.45
					c0.49-0.06,0.97-0.01,1.46,0.13c0.49,0.14,0.95,0.38,1.38,0.72c0.39,0.31,0.71,0.66,0.96,1.06c0.25,0.4,0.41,0.83,0.46,1.28
					l-0.2,0.04c-0.07-0.47-0.22-0.89-0.46-1.25c-0.24-0.36-0.54-0.68-0.9-0.97c-0.41-0.32-0.84-0.55-1.31-0.68
					c-0.46-0.13-0.93-0.17-1.39-0.12c-0.46,0.05-0.9,0.19-1.31,0.42s-0.78,0.54-1.09,0.94s-0.54,0.83-0.66,1.28
					c-0.12,0.46-0.16,0.91-0.1,1.37s0.2,0.9,0.44,1.32c0.24,0.42,0.56,0.79,0.97,1.11c0.36,0.28,0.75,0.5,1.16,0.64
					c0.41,0.14,0.85,0.19,1.33,0.14l0.01,0.2c-0.45,0.05-0.91,0.01-1.36-0.14S377.58,176.08,377.2,175.77z"/>
				<path class="st0" d="M380.78,179.7l6.07-4.14l-1.58-2.32l0.17-0.12l3.28,4.81l-0.17,0.12l-1.58-2.32l-6.07,4.14L380.78,179.7z"
					/>
				<path class="st0" d="M383.32,184.92c-0.17-0.52-0.23-1.04-0.19-1.56c0.04-0.52,0.17-0.95,0.39-1.29l0.18,0.1
					c-0.19,0.31-0.31,0.71-0.36,1.2c-0.05,0.49,0.01,0.98,0.17,1.48c0.17,0.52,0.38,0.92,0.63,1.21c0.25,0.29,0.52,0.47,0.82,0.55
					s0.59,0.08,0.88-0.02c0.34-0.11,0.59-0.28,0.75-0.51s0.25-0.5,0.28-0.82c0.03-0.31,0.03-0.64,0.01-0.99
					c-0.03-0.35-0.05-0.7-0.07-1.05c-0.02-0.35-0.01-0.69,0.03-1c0.04-0.32,0.16-0.6,0.34-0.83c0.18-0.24,0.46-0.42,0.83-0.54
					c0.31-0.1,0.64-0.11,0.96-0.03c0.33,0.08,0.63,0.27,0.92,0.56c0.29,0.3,0.52,0.73,0.7,1.29c0.12,0.38,0.19,0.78,0.19,1.19
					c0,0.41-0.05,0.78-0.17,1.1l-0.2-0.06c0.12-0.36,0.17-0.73,0.16-1.11s-0.07-0.73-0.17-1.06c-0.16-0.5-0.37-0.89-0.62-1.17
					s-0.53-0.46-0.82-0.54c-0.29-0.08-0.59-0.07-0.89,0.03c-0.35,0.11-0.6,0.29-0.76,0.52c-0.16,0.23-0.25,0.5-0.28,0.82
					c-0.03,0.31-0.03,0.64-0.01,0.99s0.05,0.7,0.07,1.05s0.01,0.68-0.04,1c-0.04,0.32-0.15,0.59-0.33,0.83
					c-0.17,0.24-0.44,0.42-0.81,0.54c-0.31,0.1-0.64,0.11-0.97,0.03c-0.33-0.08-0.64-0.28-0.92-0.59S383.5,185.49,383.32,184.92z"/>
			</g>
		</g>
	</g>
	<g>
		<g>
			<g>
				<path class="st0" d="M300.28,220.24v-18.42h6.24c1.51,0,2.8,0.24,3.88,0.72c1.08,0.48,1.91,1.17,2.49,2.07
					c0.58,0.9,0.87,1.98,0.87,3.26c0,1.26-0.29,2.35-0.87,3.25c-0.58,0.9-1.41,1.6-2.49,2.08c-1.08,0.48-2.37,0.72-3.88,0.72h-5.95
					l0.24-0.24v6.55H300.28z M300.8,213.63l-0.24-0.21h6c2.16,0,3.81-0.49,4.95-1.46c1.14-0.97,1.71-2.34,1.71-4.09
					c0-1.77-0.57-3.14-1.71-4.1c-1.14-0.96-2.79-1.45-4.95-1.45h-6l0.24-0.21V213.63z"/>
				<path class="st0" d="M315.7,220.24l8.55-18.42h0.53l8.55,18.42h-0.61l-8.34-18h0.26l-8.34,18H315.7z M318.51,214.68l0.26-0.5
					h11.45l0.26,0.5H318.51z"/>
				<path class="st0" d="M337.07,220.24v-18.42h0.53v17.92h10.97v0.5H337.07z"/>
				<path class="st0" d="M352.33,220.24v-18.42h0.45l8.76,15.32h-0.24l8.74-15.32h0.45v18.42h-0.53v-17.66h0.21l-8.6,15.05h-0.32
					l-8.63-15.05h0.24v17.66H352.33z"/>
				<path class="st0" d="M391.56,220.31c-1.35,0-2.6-0.23-3.75-0.7c-1.15-0.46-2.15-1.12-3-1.96c-0.85-0.84-1.51-1.82-1.99-2.95
					c-0.47-1.12-0.71-2.35-0.71-3.68c0-1.33,0.24-2.56,0.71-3.68c0.47-1.12,1.14-2.1,1.99-2.95c0.85-0.84,1.85-1.5,3-1.96
					c1.15-0.46,2.4-0.7,3.75-0.7c1.35,0,2.6,0.23,3.75,0.7c1.15,0.47,2.15,1.12,3,1.96c0.85,0.84,1.51,1.82,1.99,2.95
					c0.47,1.12,0.71,2.35,0.71,3.68c0,1.33-0.24,2.56-0.71,3.68c-0.47,1.12-1.14,2.11-1.99,2.95c-0.85,0.84-1.85,1.5-3,1.96
					C394.17,220.08,392.92,220.31,391.56,220.31z M391.56,219.81c1.26,0,2.44-0.22,3.53-0.66c1.09-0.44,2.03-1.06,2.84-1.85
					c0.81-0.8,1.43-1.73,1.88-2.79c0.45-1.06,0.67-2.22,0.67-3.49s-0.22-2.42-0.67-3.49c-0.45-1.06-1.07-1.99-1.88-2.79
					c-0.81-0.8-1.75-1.42-2.84-1.86c-1.09-0.44-2.26-0.66-3.53-0.66c-1.26,0-2.44,0.22-3.53,0.66c-1.09,0.44-2.04,1.06-2.84,1.86
					c-0.81,0.8-1.43,1.73-1.88,2.79s-0.67,2.22-0.67,3.49s0.22,2.43,0.67,3.49c0.45,1.06,1.07,1.99,1.88,2.79
					c0.81,0.8,1.75,1.42,2.84,1.85C389.12,219.6,390.3,219.81,391.56,219.81z"/>
				<path class="st0" d="M406.06,220.24v-18.42h0.53v18.42H406.06z"/>
				<path class="st0" d="M413.59,220.24v-18.42h0.53v17.92h10.97v0.5H413.59z"/>
			</g>
		</g>
	</g>
	<path class="st0" d="M364.7,177.42c0,0-6.03,6.69-6.03,10.03c0,3.32,2.7,6.03,6.03,6.03c3.33,0,6.03-2.71,6.03-6.03
		C370.73,184.12,364.7,177.42,364.7,177.42z"/>
</g>
<g>
	<g>
		<g>
			<path class="st0" d="M80.46,401.2V389.1h4.1c0.99,0,1.84,0.16,2.55,0.48c0.71,0.32,1.25,0.77,1.63,1.36
				c0.38,0.59,0.57,1.3,0.57,2.14c0,0.83-0.19,1.54-0.57,2.14c-0.38,0.59-0.93,1.05-1.63,1.37c-0.71,0.32-1.56,0.48-2.55,0.48h-3.91
				l0.16-0.16v4.31H80.46z M80.81,396.86l-0.16-0.14h3.94c1.42,0,2.5-0.32,3.25-0.96s1.12-1.54,1.12-2.69c0-1.16-0.37-2.06-1.12-2.7
				c-0.75-0.63-1.83-0.95-3.25-0.95h-3.94l0.16-0.14V396.86z"/>
			<path class="st0" d="M90.6,401.2l5.62-12.11h0.35l5.62,12.11h-0.4l-5.48-11.83h0.17L91,401.2H90.6z M92.45,397.55l0.17-0.33h7.52
				l0.17,0.33H92.45z"/>
			<path class="st0" d="M104.64,401.2V389.1h0.35v11.78h7.21v0.33H104.64z"/>
			<path class="st0" d="M114.67,401.2V389.1h0.29l5.76,10.07h-0.16l5.74-10.07h0.29v12.11h-0.35V389.6h0.14l-5.66,9.89h-0.21
				l-5.67-9.89h0.16v11.61H114.67z"/>
			<path class="st0" d="M140.46,401.25c-0.89,0-1.71-0.15-2.46-0.46c-0.76-0.31-1.41-0.74-1.97-1.29c-0.56-0.55-0.99-1.2-1.31-1.94
				c-0.31-0.74-0.47-1.54-0.47-2.42c0-0.88,0.16-1.68,0.47-2.42c0.31-0.74,0.75-1.38,1.31-1.94c0.56-0.55,1.22-0.98,1.97-1.29
				c0.75-0.31,1.58-0.46,2.46-0.46c0.89,0,1.71,0.15,2.46,0.46c0.75,0.31,1.41,0.73,1.97,1.29c0.56,0.55,0.99,1.2,1.31,1.94
				c0.31,0.74,0.47,1.54,0.47,2.42c0,0.88-0.16,1.68-0.47,2.42c-0.31,0.74-0.75,1.38-1.31,1.94c-0.56,0.55-1.22,0.98-1.97,1.29
				C142.17,401.1,141.35,401.25,140.46,401.25z M140.46,400.93c0.83,0,1.6-0.14,2.32-0.43s1.34-0.69,1.87-1.22
				c0.53-0.52,0.94-1.14,1.24-1.83c0.29-0.7,0.44-1.46,0.44-2.29s-0.15-1.59-0.44-2.29c-0.29-0.7-0.71-1.31-1.24-1.83
				c-0.53-0.52-1.15-0.93-1.87-1.22s-1.49-0.43-2.32-0.43s-1.6,0.14-2.32,0.43c-0.72,0.29-1.34,0.69-1.87,1.22
				c-0.53,0.53-0.94,1.14-1.24,1.83c-0.29,0.7-0.44,1.46-0.44,2.29s0.15,1.59,0.44,2.29c0.29,0.7,0.71,1.31,1.24,1.83
				c0.53,0.53,1.15,0.93,1.87,1.22C138.86,400.78,139.63,400.93,140.46,400.93z"/>
			<path class="st0" d="M149.99,401.2V389.1h0.35v12.11H149.99z"/>
			<path class="st0" d="M154.94,401.2V389.1h0.35v11.78h7.21v0.33H154.94z"/>
			<path class="st0" d="M169.29,401.2V389.1h7.8v0.33h-7.45v11.78H169.29z M169.55,395.56v-0.33h6.76v0.33H169.55z"/>
			<path class="st0" d="M180.17,401.2V389.1h4.1c1.49,0,2.65,0.35,3.49,1.05c0.84,0.7,1.26,1.67,1.26,2.93
				c0,0.83-0.19,1.54-0.57,2.14c-0.38,0.59-0.93,1.05-1.63,1.37c-0.71,0.32-1.56,0.48-2.55,0.48h-3.91l0.16-0.16v4.31H180.17z
				 M180.52,396.86l-0.16-0.14h3.94c1.42,0,2.5-0.32,3.25-0.96s1.12-1.54,1.12-2.69c0-1.16-0.37-2.06-1.12-2.7
				c-0.75-0.63-1.83-0.95-3.25-0.95h-3.94l0.16-0.14V396.86z M188.77,401.2l-3.17-4.39h0.43l3.17,4.39H188.77z"/>
			<path class="st0" d="M192.56,401.2V389.1h7.8v0.33h-7.45v11.45h7.71v0.33H192.56z M192.81,395.22v-0.33h6.76v0.33H192.81z"/>
			<path class="st0" d="M204.11,401.2V389.1h7.8v0.33h-7.45v11.45h7.71v0.33H204.11z M204.37,395.22v-0.33h6.76v0.33H204.37z"/>
		</g>
	</g>
	<g>
		<g>
			<path class="st0" d="M125.51,415.21v-5.75h1.95c0.47,0,0.87,0.08,1.21,0.23c0.34,0.15,0.59,0.37,0.78,0.64s0.27,0.62,0.27,1.02
				c0,0.39-0.09,0.73-0.27,1.01c-0.18,0.28-0.44,0.5-0.78,0.65s-0.74,0.23-1.21,0.23h-1.85l0.07-0.07v2.04H125.51z M125.67,413.16
				l-0.07-0.07h1.87c0.67,0,1.19-0.15,1.54-0.46s0.53-0.73,0.53-1.28c0-0.55-0.18-0.98-0.53-1.28s-0.87-0.45-1.54-0.45h-1.87
				l0.07-0.07V413.16z"/>
			<path class="st0" d="M131.33,415.21v-5.75h1.95c0.71,0,1.26,0.17,1.66,0.5s0.6,0.79,0.6,1.39c0,0.39-0.09,0.73-0.27,1.01
				c-0.18,0.28-0.44,0.5-0.78,0.65s-0.74,0.23-1.21,0.23h-1.85l0.07-0.07v2.04H131.33z M131.5,413.16l-0.07-0.07h1.87
				c0.67,0,1.19-0.15,1.54-0.46s0.53-0.73,0.53-1.28c0-0.55-0.18-0.98-0.53-1.28s-0.87-0.45-1.54-0.45h-1.87l0.07-0.07V413.16z
				 M135.41,415.21l-1.5-2.08h0.21l1.5,2.08H135.41z"/>
			<path class="st0" d="M139.55,415.24c-0.42,0-0.81-0.07-1.17-0.22c-0.36-0.15-0.67-0.35-0.94-0.61c-0.27-0.26-0.47-0.57-0.62-0.92
				c-0.15-0.35-0.22-0.73-0.22-1.15s0.07-0.8,0.22-1.15c0.15-0.35,0.35-0.66,0.62-0.92c0.27-0.26,0.58-0.47,0.94-0.61
				c0.36-0.15,0.75-0.22,1.17-0.22c0.42,0,0.81,0.07,1.17,0.22c0.36,0.14,0.67,0.35,0.94,0.61c0.27,0.26,0.47,0.57,0.62,0.92
				c0.15,0.35,0.22,0.73,0.22,1.15s-0.07,0.8-0.22,1.15c-0.15,0.35-0.35,0.66-0.62,0.92c-0.27,0.26-0.58,0.47-0.94,0.61
				C140.36,415.17,139.97,415.24,139.55,415.24z M139.55,415.08c0.39,0,0.76-0.07,1.1-0.21c0.34-0.14,0.63-0.33,0.89-0.58
				c0.25-0.25,0.45-0.54,0.59-0.87c0.14-0.33,0.21-0.69,0.21-1.09c0-0.39-0.07-0.76-0.21-1.09c-0.14-0.33-0.34-0.62-0.59-0.87
				c-0.25-0.25-0.55-0.44-0.89-0.58c-0.34-0.14-0.71-0.21-1.1-0.21c-0.39,0-0.76,0.07-1.1,0.21s-0.63,0.33-0.89,0.58
				c-0.25,0.25-0.45,0.54-0.59,0.87c-0.14,0.33-0.21,0.69-0.21,1.09c0,0.39,0.07,0.76,0.21,1.09c0.14,0.33,0.34,0.62,0.59,0.87
				s0.55,0.44,0.89,0.58C138.79,415.02,139.16,415.08,139.55,415.08z"/>
			<path class="st0" d="M144.07,415.21v-5.75h2.17c0.61,0,1.14,0.12,1.59,0.37s0.81,0.59,1.06,1.02s0.38,0.92,0.38,1.48
				s-0.13,1.04-0.38,1.48c-0.25,0.43-0.6,0.77-1.06,1.02s-0.98,0.37-1.59,0.37H144.07z M144.24,415.06h1.99
				c0.59,0,1.09-0.12,1.53-0.35s0.77-0.56,1-0.96c0.23-0.41,0.35-0.87,0.35-1.4s-0.12-0.99-0.35-1.4c-0.24-0.41-0.57-0.73-1-0.96
				c-0.43-0.23-0.94-0.35-1.53-0.35h-1.99V415.06z"/>
			<path class="st0" d="M153.02,415.24c-0.68,0-1.22-0.2-1.62-0.61c-0.4-0.4-0.59-1.01-0.59-1.82v-3.34h0.16v3.33
				c0,0.77,0.18,1.34,0.54,1.72c0.36,0.38,0.86,0.57,1.51,0.57c0.65,0,1.16-0.19,1.51-0.57c0.36-0.38,0.54-0.95,0.54-1.72v-3.33
				h0.16v3.34c0,0.81-0.2,1.42-0.6,1.82C154.24,415.04,153.7,415.24,153.02,415.24z"/>
			<path class="st0" d="M159.71,415.24c-0.42,0-0.81-0.07-1.17-0.22c-0.36-0.15-0.67-0.35-0.94-0.61c-0.27-0.26-0.47-0.57-0.62-0.92
				c-0.15-0.35-0.22-0.73-0.22-1.15s0.07-0.8,0.22-1.15c0.15-0.35,0.35-0.66,0.62-0.92c0.27-0.26,0.58-0.47,0.94-0.61
				c0.36-0.15,0.75-0.22,1.17-0.22c0.38,0,0.74,0.06,1.07,0.18s0.63,0.3,0.88,0.55l-0.1,0.12c-0.26-0.25-0.55-0.43-0.86-0.53
				c-0.31-0.1-0.64-0.16-0.99-0.16c-0.39,0-0.76,0.07-1.1,0.21s-0.63,0.33-0.89,0.58s-0.45,0.54-0.59,0.87
				c-0.14,0.33-0.21,0.69-0.21,1.08s0.07,0.75,0.21,1.08c0.14,0.33,0.34,0.62,0.59,0.87s0.55,0.44,0.89,0.58s0.71,0.21,1.1,0.21
				c0.35,0,0.68-0.05,0.99-0.16c0.31-0.11,0.6-0.29,0.86-0.54l0.1,0.12c-0.25,0.25-0.54,0.43-0.88,0.55S160.08,415.24,159.71,415.24
				z"/>
			<path class="st0" d="M164.19,415.21v-5.59h-2.13v-0.16h4.43v0.16h-2.13v5.59H164.19z"/>
			<path class="st0" d="M169.02,415.24c-0.42,0-0.81-0.08-1.18-0.23c-0.37-0.15-0.65-0.35-0.84-0.58l0.11-0.11
				c0.18,0.21,0.44,0.39,0.78,0.54c0.34,0.15,0.71,0.22,1.11,0.22c0.42,0,0.76-0.06,1.02-0.17c0.27-0.12,0.46-0.27,0.59-0.46
				c0.13-0.19,0.19-0.41,0.19-0.64c0-0.27-0.07-0.49-0.2-0.66s-0.31-0.3-0.53-0.39s-0.46-0.18-0.71-0.24s-0.52-0.13-0.78-0.19
				c-0.26-0.07-0.5-0.15-0.72-0.26s-0.39-0.25-0.53-0.44c-0.13-0.19-0.2-0.43-0.2-0.73c0-0.25,0.07-0.49,0.2-0.71
				c0.13-0.22,0.34-0.4,0.62-0.53s0.65-0.21,1.1-0.21c0.31,0,0.61,0.05,0.91,0.14s0.55,0.22,0.76,0.38l-0.09,0.13
				c-0.23-0.17-0.48-0.29-0.76-0.38c-0.28-0.08-0.55-0.12-0.8-0.12c-0.4,0-0.73,0.06-0.99,0.18c-0.26,0.12-0.46,0.27-0.58,0.47
				c-0.13,0.19-0.19,0.41-0.19,0.65c0,0.28,0.07,0.5,0.2,0.67c0.13,0.17,0.31,0.3,0.52,0.39s0.46,0.17,0.72,0.24
				c0.26,0.06,0.52,0.13,0.78,0.2s0.5,0.16,0.71,0.26s0.39,0.25,0.53,0.43c0.13,0.18,0.2,0.42,0.2,0.71c0,0.25-0.07,0.49-0.21,0.71
				s-0.35,0.4-0.64,0.53C169.85,415.17,169.47,415.24,169.02,415.24z"/>
		</g>
	</g>
	<g>
		<g>
			<g>
				<path class="st0" d="M90.47,326.48l-10.75-6.5l2.2-3.64c0.53-0.88,1.13-1.55,1.79-2.01c0.66-0.46,1.36-0.7,2.08-0.72
					c0.73-0.02,1.46,0.19,2.21,0.65c0.74,0.45,1.27,1,1.59,1.65c0.32,0.66,0.44,1.39,0.34,2.19c-0.1,0.8-0.42,1.64-0.95,2.52
					l-2.1,3.47l-0.05-0.22l3.83,2.31L90.47,326.48z M86.8,323.84l-0.21,0.06l2.12-3.5c0.76-1.26,1.06-2.39,0.89-3.4
					c-0.17-1.01-0.76-1.82-1.79-2.44c-1.03-0.63-2.03-0.78-3-0.45s-1.83,1.12-2.59,2.38l-2.12,3.5l-0.04-0.21L86.8,323.84z"/>
				<path class="st0" d="M96.15,317.25l-5.33-12.79l0.24-0.26l13.21,4.18l-0.28,0.3l-12.9-4.09l0.12-0.13l5.22,12.49L96.15,317.25z
					 M94.66,313.27l-0.13-0.36l5.27-5.76l0.37,0.1L94.66,313.27z"/>
				<path class="st0" d="M106.63,306.61l-7.61-10l0.29-0.22l7.4,9.73l5.96-4.53l0.21,0.27L106.63,306.61z"/>
				<path class="st0" d="M115.28,300.26L110,288.86l0.28-0.13l9.82,6.97l-0.15,0.07l1.02-11.99l0.28-0.13l5.28,11.41l-0.33,0.15
					l-5.06-10.93l0.13-0.06L120.25,296l-0.2,0.09l-9.66-6.85l0.15-0.07l5.06,10.93L115.28,300.26z"/>
				<path class="st0" d="M141.4,292.09c-0.92,0.09-1.78,0.02-2.59-0.21c-0.81-0.24-1.54-0.61-2.17-1.12
					c-0.64-0.51-1.15-1.13-1.55-1.86c-0.4-0.73-0.65-1.55-0.74-2.45c-0.09-0.9-0.02-1.75,0.23-2.55s0.62-1.51,1.14-2.14
					c0.52-0.63,1.15-1.14,1.9-1.54c0.75-0.4,1.58-0.64,2.5-0.73s1.78-0.02,2.59,0.21c0.81,0.24,1.54,0.61,2.17,1.12
					c0.64,0.51,1.15,1.13,1.55,1.86c0.4,0.73,0.65,1.55,0.74,2.45c0.09,0.91,0.02,1.75-0.23,2.55s-0.62,1.51-1.14,2.14
					s-1.15,1.14-1.9,1.54S142.32,292,141.4,292.09z M141.37,291.75c0.86-0.09,1.64-0.32,2.35-0.69c0.71-0.37,1.31-0.86,1.8-1.46
					s0.85-1.27,1.08-2.02c0.23-0.75,0.3-1.56,0.21-2.41c-0.09-0.86-0.32-1.63-0.7-2.32s-0.87-1.28-1.47-1.76s-1.29-0.84-2.06-1.06
					c-0.77-0.22-1.58-0.29-2.44-0.2c-0.86,0.09-1.64,0.32-2.35,0.69s-1.31,0.86-1.8,1.46c-0.49,0.6-0.85,1.27-1.08,2.02
					c-0.23,0.75-0.3,1.56-0.21,2.41c0.09,0.86,0.32,1.63,0.7,2.32c0.38,0.69,0.87,1.28,1.47,1.76c0.6,0.49,1.29,0.84,2.06,1.06
					S140.51,291.84,141.37,291.75z"/>
				<path class="st0" d="M151.71,291.8l0.74-12.55l0.36,0.02l-0.74,12.55L151.71,291.8z"/>
				<path class="st0" d="M157.32,292.3l2.33-12.35l0.35,0.07l-2.27,12.01l7.36,1.39l-0.06,0.33L157.32,292.3z"/>
				<path class="st0" d="M172.67,296.48l5.37-11.36l7.32,3.46l-0.15,0.31l-7-3.3L173,296.63L172.67,296.48z M175.42,291.3l0.15-0.31
					l6.35,3l-0.15,0.31L175.42,291.3z"/>
				<path class="st0" d="M183.02,301.83l7.43-10.14l3.43,2.52c1.25,0.91,2.01,1.92,2.28,3.02s0.03,2.18-0.74,3.23
					c-0.51,0.7-1.11,1.17-1.79,1.44c-0.68,0.26-1.42,0.31-2.21,0.14c-0.79-0.17-1.6-0.56-2.43-1.17l-3.27-2.4l0.23-0.03l-2.64,3.6
					L183.02,301.83z M185.97,298.4l-0.05-0.21l3.3,2.42c1.19,0.87,2.29,1.27,3.31,1.19c1.02-0.08,1.88-0.6,2.59-1.56
					c0.71-0.98,0.95-1.96,0.72-2.95c-0.24-0.99-0.95-1.92-2.14-2.79l-3.3-2.42l0.22-0.02L185.97,298.4z M190.21,307.1l0.05-5.62
					l0.36,0.27l-0.05,5.62L190.21,307.1z"/>
				<path class="st0" d="M193.3,310.03l9.25-8.51l5.48,5.96l-0.25,0.23l-5.24-5.7l-8.75,8.04l5.42,5.9l-0.25,0.23L193.3,310.03z
					 M198.05,306.02l0.25-0.23l4.75,5.17l-0.25,0.23L198.05,306.02z"/>
				<path class="st0" d="M201.27,319.42l10.69-6.62l4.26,6.88l-0.29,0.18l-4.07-6.58l-10.11,6.26l4.22,6.81l-0.29,0.18
					L201.27,319.42z M206.7,316.38l0.29-0.18l3.7,5.97l-0.29,0.18L206.7,316.38z"/>
			</g>
		</g>
	</g>
</g>
</svg>
